<?xml version="1.0" encoding="UTF-8"?>
<svg width="92px" height="92px" viewBox="0 0 92 92" version="1.1" xmlns="http://www.w3.org/2000/svg" xmlns:xlink="http://www.w3.org/1999/xlink">
    <!-- Generator: Sketch 50.2 (55047) - http://www.bohemiancoding.com/sketch -->
    <title>97-percent_rev</title>
    <desc>Created with Sketch.</desc>
    <defs></defs>
    <g id="Page-1" stroke="none" stroke-width="1" fill="none" fill-rule="evenodd">
        <g id="97-percent_rev" fill="#0D83DD">
            <path d="M43.84,4 C44.1099296,3.14493769 44.6593256,2.40536613 45.4,1.9 C46.2284692,1.31998048 47.1682795,0.918177556 48.16,0.72 C49.247754,0.487063526 50.3576062,0.373060575 51.47,0.38 C52.6146165,0.377817332 53.755607,0.50869566 54.87,0.77 C55.8653414,0.96818654 56.8280238,1.30478878 57.73,1.77 L58.36,2.17 L59.02,2.6 L59.62,3.05 C59.8958328,3.25459133 60.1596062,3.47495902 60.41,3.71 C60.67,3.96 60.96,4.24 61.27,4.56 C61.5897114,4.82816074 61.7093005,5.2666542 61.57,5.66 C61.3862676,6.22279869 61.0708628,6.73361742 60.65,7.15 C60.1478605,7.70714688 59.6171469,8.23786051 59.06,8.74 C58.51,9.25 57.84,9.85 57.06,10.55 C56.28,11.25 55.65,11.84 55.2,12.29 C54.2733224,13.2421286 53.3987167,14.2435856 52.58,15.29 C51.58,16.49 50.8,17.5 50.16,18.29 C49.8087054,18.8100118 49.3646298,19.2608672 48.85,19.62 C48.0347462,19.6501216 47.2284314,19.4415919 46.53,19.02 C45.6939508,18.7070038 44.9264721,18.2349705 44.27,17.63 C44.07,17.41 44.55,16.55 45.68,15.06 C46.81,13.57 48.01,12.13 49.25,10.76 L51.1,8.72 L50.8,8.72 L50,8.6 C49.62,8.6 49.24,8.49 48.88,8.42 C48.52,8.35 48.08,8.24 47.6,8.11 C47.150944,7.99204613 46.7100172,7.84507053 46.28,7.67 C45.8698205,7.49711876 45.475068,7.28970644 45.1,7.05 C44.7551774,6.83067373 44.4450832,6.56102658 44.18,6.25 C43.9418317,5.96016762 43.7771658,5.6171136 43.7,5.25 C43.6332292,4.82832906 43.6815995,4.39645176 43.84,4 Z M49.52,5.65 C49.75,5.86 50.29,5.9 51.12,5.77 C51.7935333,5.68261098 52.4613506,5.55572569 53.12,5.39 C53.6141896,5.2607501 54.0987105,5.09701543 54.57,4.9 C54.93,4.73 55.23,4.57 55.48,4.42 C55.6694266,4.30118798 55.8439947,4.16019068 56,4 L56.14,3.85 C55.8823134,3.70811138 55.6149906,3.58447457 55.34,3.48 C55.0895906,3.39122209 54.8319607,3.32430523 54.57,3.28 C54.3287068,3.24015256 54.0845613,3.2200858 53.84,3.22 C53.6035777,3.20479143 53.3664223,3.20479143 53.13,3.22 C52.9,3.22 52.66,3.28 52.43,3.32 L51.74,3.44 L51.48,3.5 C50.8924818,3.70802471 50.3617034,4.05046239 49.93,4.5 C49.43,5 49.29,5.38 49.52,5.62 L49.52,5.65 Z" id="Shape" fill-rule="nonzero"></path>
            <path d="M62.14,7 C62.3681021,6.750414 62.6689925,6.57897643 63,6.51 C63.3689348,6.42895409 63.7510652,6.42895409 64.12,6.51 C64.5378454,6.58208822 64.9517215,6.67554413 65.36,6.79 L66.84,7.21 C67.3381788,7.3684791 67.8458521,7.49539742 68.36,7.59 C69.0512612,7.70447584 69.7495737,7.7713 70.45,7.79 C71.29,7.79 72.03,7.84 72.69,7.84 C73.4274565,7.84861563 74.1630793,7.91549043 74.89,8.04 C75.6155881,8.1460126 76.3246607,8.3442841 77,8.63 C77.2651552,8.73690507 77.5168713,8.87450988 77.75,9.04 C77.9159325,9.14486699 78.0533472,9.2891524 78.15,9.46 C78.2145045,9.58471974 78.2551993,9.72036913 78.27,9.86 C78.2610698,10.0145153 78.2091139,10.1634557 78.12,10.29 C78.0173224,10.4388071 77.9071816,10.5823239 77.79,10.72 C77.6315462,10.8795402 77.4610422,11.0266418 77.28,11.16 C77.06,11.34 76.86,11.48 76.69,11.61 L76.03,12.1 L75.36,12.59 C73.99,13.73 72.01,15.48 69.44,17.86 C67.6878303,19.3774762 66.0531518,21.0255263 64.55,22.79 C64.177588,23.3322597 63.7665198,23.8469303 63.32,24.33 C63.0613595,24.5971318 62.684389,24.7139926 62.32,24.64 C61.7629123,24.5175634 61.2175251,24.3469208 60.69,24.13 C60.3365291,24.0203487 59.9999856,23.8621733 59.69,23.66 C59.4795807,23.5336547 59.3229745,23.3343377 59.25,23.1 C59.1953075,22.893561 59.1953075,22.676439 59.25,22.47 C59.332901,22.1809646 59.4685123,21.909742 59.65,21.67 C59.8605001,21.3549153 60.0874825,21.0511596 60.33,20.76 C60.56,20.48 60.88,20.1 61.33,19.64 C61.9233333,18.9733333 62.96,17.8533333 64.44,16.28 C65.93,14.74 67.26,13.38 68.44,12.19 L70.24,10.42 L69.24,10.37 C68.5687541,10.3080923 67.9011847,10.2112947 67.24,10.08 L64.85,9.66 C64.223593,9.47007867 63.6199663,9.2118606 63.05,8.89 C62.6436877,8.67359742 62.2994532,8.35690163 62.05,7.97 C61.8131946,7.67539679 61.853035,7.24600596 62.14,7 Z" id="Shape" fill-rule="nonzero"></path>
            <path d="M80.37,26.2 C83.3117859,23.2357441 86.0449775,20.0715235 88.55,16.73 C88.55,16.68 88.64,16.64 88.66,16.59 L88.84,16.09 C88.84,16.09 88.9,16.02 88.91,15.99 C89.29,15.44 90.01,15.44 90.91,15.78 C91.1475317,15.8268187 91.3485456,15.9840057 91.4512512,16.2032427 C91.5539568,16.4224797 91.5460644,16.6775327 91.43,16.89 C91.1749454,17.4319289 90.8376268,17.9311604 90.43,18.37 C86.9509647,22.4555625 83.209725,26.3103755 79.23,29.91 C78,31 76.54,32.2 75.91,32 C75.28,31.8 75.3,31.63 75.36,31.06 C75.36,31.06 75.47,30.92 75.56,30.83 C75.7560096,30.7036643 75.9401035,30.5597362 76.11,30.4 C77.63,29.05 79,27.56 80.37,26.2 Z M78.87,21.81 C77.9819632,21.4518574 77.2794346,20.7455219 76.9260962,19.8555627 C76.5727578,18.9656034 76.5994667,17.9697405 77,17.1 C77.3102253,16.0595658 78.0390845,15.1949632 79.0120527,14.7132206 C79.9850209,14.2314781 81.1144867,14.1759745 82.13,14.56 C84.05,15.26 84.46,17.91 83.89,19.46 C83.5542526,20.4509212 82.8287097,21.2619409 81.8811415,21.7055236 C80.9335733,22.1491063 79.8460341,22.1868402 78.87,21.81 Z M81,16.45 C80.218073,16.2779083 79.4277044,16.7028376 79.14,17.45 C78.62,18.9 79.14,19.78 79.95,20.07 C80.9066649,20.2741129 81.8609935,19.7145293 82.15,18.78 C82.3232678,18.319187 82.2979461,17.8071917 82.0800544,17.3657242 C81.8621628,16.9242567 81.4711621,16.5927468 81,16.45 Z M84.3,29 C84.634125,27.9614421 85.3859438,27.1091086 86.3746704,26.6479559 C87.363397,26.1868032 88.4995774,26.1585536 89.51,26.57 C91.3,27.22 92.04,29.52 91.28,31.57 C90.34,34.17 88.48,34.45 86.53,33.89 C85.5664406,33.5629969 84.7806788,32.8526187 84.3584789,31.9268082 C83.936279,31.0009977 83.9151185,29.9419363 84.3,29 Z M88.51,28.32 C87.5949609,28.2007614 86.7354927,28.7851997 86.51,29.68 C85.82,31.57 86.84,32.03 87.63,32.32 C88.4776017,32.3148513 89.2355318,31.7910463 89.54,31 C89.9582541,29.969156 89.5085631,28.7903545 88.51,28.3 L88.51,28.32 Z" id="Shape" fill-rule="nonzero"></path>
            <path d="M3.62,83.2 C4.28373493,83.2804437 4.95143635,83.3238443 5.62,83.33 L6.86,83.33 L8.19,83.28 C9.19362825,83.2482158 10.1949541,83.164772 11.19,83.03 C12.24,82.94 13.3,82.68 14.43,82.5 C15.56,82.32 16.67,81.99 17.78,81.62 C18.89,81.25 20.05,80.89 21.17,80.48 C22.29,80.07 23.39,79.59 24.46,79.09 L26,78.37 L27.52,77.57 C28.52,77.06 29.45,76.47 30.35,75.95 C31.25,75.43 32.08,74.88 32.83,74.35 C33.58,73.82 34.28,73.35 34.83,72.9 C35.38,72.45 35.96,72.07 36.38,71.72 L37.71,70.65 C37.8190959,70.4792734 37.8190959,70.2607266 37.71,70.09 C37.61,69.88 37.44,69.77 37.33,69.85 L35.96,70.85 C35.53,71.17 34.96,71.51 34.38,71.93 C33.8,72.35 33.05,72.77 32.28,73.25 C31.51,73.73 30.66,74.18 29.76,74.69 C28.86,75.2 28,75.68 27,76.13 L25.46,76.83 L23.86,77.49 C22.78,77.93 21.66,78.31 20.53,78.68 C19.4,79.05 18.27,79.37 17.13,79.62 C15.99,79.87 14.86,80.08 13.77,80.3 C12.68,80.52 11.59,80.62 10.55,80.66 C9.51,80.7 8.55,80.78 7.61,80.75 L6.3,80.75 L5.1,80.65 C4.42942089,80.6181523 3.76146783,80.5446774 3.1,80.43 C2,80.23 2,80.47 2,80.47 C1.52,80.39 1.4,82.92 1.89,83 L3.62,83.2 Z" id="Shape" fill-rule="nonzero"></path>
            <path d="M13.84,90.66 C13.29,90.33 12.84,90 12.32,89.66 C11.8,89.32 11.32,88.92 10.86,88.54 C9.9,87.76 9,87 8.05,86.15 C7.1,85.3 6.27,84.48 5.47,83.6 C5.06759212,83.1763755 4.68709592,82.7324633 4.33,82.27 C4.15,82.05 4,81.82 3.85,81.6 C3.7,81.38 3.61,81.17 3.48,80.96 L3.48,82.65 C3.63,82.38 3.76,82.12 3.95,81.84 C4.14,81.56 4.29,81.28 4.49,81.01 C4.87,80.45 5.28,79.89 5.7,79.34 C6.54,78.24 7.43,77.16 8.34,76.1 C9.25,75.04 10.19,74 11.16,73 C11.65,72.5 12.16,72 12.65,71.53 C12.9,71.3 13.15,71.05 13.41,70.84 C13.6616524,70.6250693 13.9254184,70.4247407 14.2,70.24 C14.3625558,70.141752 14.4603489,69.9642445 14.4565416,69.774343 C14.4527342,69.5844415 14.3479048,69.4109965 14.1815416,69.319343 C14.0151783,69.2276895 13.8125558,69.231752 13.65,69.33 C13.2966667,69.51 12.9633333,69.7 12.65,69.9 C12.33,70.09 12.05,70.31 11.75,70.52 C11.16,70.94 10.59,71.38 10.02,71.83 C8.9,72.73 7.80666667,73.66 6.74,74.62 C5.67333333,75.58 4.63,76.58 3.61,77.62 C3.09,78.14 2.61,78.62 2.09,79.22 C1.84,79.49 1.6,79.78 1.36,80.07 C1.12,80.36 0.88,80.7 0.64,81.02 C0.261504594,81.5123289 0.261504594,82.1976711 0.64,82.69 C0.857923159,82.9952677 1.09157192,83.2889976 1.34,83.57 C1.59,83.83 1.83,84.09 2.07,84.32 C2.56,84.79 3.07,85.21 3.57,85.62 C4.57,86.44 5.63,87.18 6.69,87.88 C7.75,88.58 8.82,89.25 9.92,89.88 C10.47,90.2 11.02,90.5 11.58,90.79 C12.14,91.08 12.75,91.38 13.31,91.61 C13.5574009,91.702295 13.8346961,91.5945152 13.9548259,91.3593676 C14.0749557,91.1242199 13.9997751,90.836371 13.78,90.69" id="Shape" fill-rule="nonzero"></path>
            <path d="M21.743,38.084 C20.651,38.084 19.839,37.062 19.839,35.802 C19.839,34.22 20.245,32.638 22.135,32.638 C23.479,32.638 23.997,33.842 23.997,34.976 C23.997,36.39 23.311,38.084 21.743,38.084 Z M21.827,37.006 C22.793,37.006 23.101,35.774 23.101,34.892 C23.101,34.318 22.807,33.688 22.233,33.688 C21.085,33.688 20.973,34.878 20.973,35.69 C20.973,36.446 21.253,37.006 21.827,37.006 Z M29.177,33.968 C28.617,34.332 27.847,34.542 27.119,34.668 C27.217,36.488 27.329,38.07 27.329,38.196 C27.329,38.49 27.175,38.56 26.937,38.56 C26.503,38.56 26.419,38.252 26.321,37.818 C26.223,37.342 26.097,36.11 25.999,34.794 C25.817,34.808 25.649,34.808 25.523,34.808 C24.991,34.808 24.585,34.682 24.585,34.01 C24.585,33.59 24.683,33.562 24.837,33.562 C24.893,33.562 24.963,33.576 25.033,33.59 C25.229,33.618 25.523,33.688 25.929,33.716 L25.929,33.268 C25.929,30.636 26.293,28.466 27.903,28.466 C28.393,28.466 28.785,28.564 29.289,28.97 C29.443,29.096 29.513,29.306 29.513,29.502 C29.513,29.81 29.345,30.118 29.093,30.118 C28.995,30.118 28.883,30.048 28.743,29.908 C28.505,29.67 28.267,29.544 28.071,29.544 C27.469,29.544 27.063,30.496 27.063,32.078 L27.063,32.862 C27.063,33.142 27.063,33.436 27.077,33.73 C27.441,33.688 27.931,33.618 28.365,33.52 C28.673,33.45 29.149,33.282 29.275,33.282 C29.345,33.282 29.387,33.324 29.387,33.422 C29.387,33.59 29.275,33.912 29.177,33.968 Z M35.085,38.336 C33.587,38.336 32.621,37.328 32.621,35.69 C32.621,34.038 33.489,32.848 35.015,32.848 C35.715,32.848 36.611,33.268 36.611,34.248 C36.611,34.598 36.373,34.696 36.093,34.696 C36.037,34.696 35.953,34.696 35.911,34.682 C35.701,34.626 35.701,34.43 35.631,34.276 C35.561,34.108 35.463,33.884 35.099,33.884 C34.301,33.884 33.853,34.752 33.853,35.606 C33.853,36.81 34.413,37.524 35.281,37.524 C35.869,37.524 36.443,36.978 36.625,36.474 C36.709,36.25 36.765,36.25 36.821,36.25 C37.101,36.25 37.157,36.446 37.157,36.642 C37.157,37.454 36.065,38.336 35.085,38.336 Z M41.875,35.284 C41.203,37.244 40.545,38.028 39.649,38.028 C38.319,38.028 38.067,36.264 37.997,35.284 C37.983,35.116 37.983,34.794 37.983,34.598 C37.983,33.898 38.067,33.17 38.781,32.988 C38.921,32.946 39.033,32.932 39.103,32.932 C39.327,32.932 39.411,33.128 39.411,33.45 C39.411,34.178 39.243,34.808 39.243,35.466 C39.243,36.054 39.425,36.852 39.985,36.852 C40.587,36.852 41.189,35.522 41.721,33.982 C41.819,33.212 42.015,33.142 42.267,33.142 C42.505,33.142 43.009,33.142 43.009,33.702 L43.009,34.108 C43.009,34.64 43.009,35.326 43.093,35.928 C43.163,36.446 43.275,36.908 43.471,37.328 C43.527,37.454 43.583,37.608 43.583,37.65 C43.583,37.902 43.345,38.084 43.121,38.084 C43.037,38.084 42.967,38.07 42.925,38.028 C42.393,37.678 41.931,36.796 41.875,35.284 Z M47.013,36.516 C47.013,35.886 44.857,35.578 44.801,34.22 L44.801,34.15 C44.801,32.974 46.117,32.4 47.223,32.33 C47.741,32.33 47.923,32.694 47.923,33.002 C47.923,33.464 45.935,33.296 45.935,34.178 C45.935,34.668 47.321,35.284 47.657,35.494 C48.091,35.774 48.315,36.096 48.315,36.53 C48.315,37.706 46.383,38.266 45.473,38.266 C45.095,38.266 44.633,38.182 44.633,37.776 C44.633,37.622 44.689,37.482 44.829,37.482 C44.969,37.482 45.067,37.51 45.179,37.51 C45.767,37.51 47.013,37.23 47.013,36.516 Z M51.003,38.308 C50.807,38.308 50.737,38.07 50.667,37.664 C50.415,36.222 50.317,34.766 50.303,33.282 C49.435,33.45 48.847,33.548 48.847,33.548 C48.623,33.548 48.259,33.24 48.259,32.876 C48.259,32.736 48.273,32.61 48.385,32.554 C48.385,32.554 49.015,32.498 50.303,32.372 C50.303,31.742 50.317,31.112 50.387,30.482 C50.471,29.642 50.625,28.606 51.269,28.606 C51.661,28.606 51.997,28.732 51.997,28.998 L51.997,29.096 C51.773,30.216 51.633,31.266 51.549,32.246 C52.515,32.12 53.145,31.966 53.467,31.882 C53.523,31.868 53.565,31.854 53.607,31.854 C53.677,31.854 53.733,31.896 53.733,31.98 C53.733,32.414 53.369,32.61 53.075,32.68 C52.543,32.82 51.997,32.932 51.507,33.044 C51.493,33.31 51.493,33.576 51.493,33.828 C51.493,35.914 51.577,36.936 51.619,37.412 L51.619,37.748 C51.619,38 51.451,38.308 51.003,38.308 Z M55.679,38.084 C54.587,38.084 53.775,37.062 53.775,35.802 C53.775,34.22 54.181,32.638 56.071,32.638 C57.415,32.638 57.933,33.842 57.933,34.976 C57.933,36.39 57.247,38.084 55.679,38.084 Z M55.763,37.006 C56.729,37.006 57.037,35.774 57.037,34.892 C57.037,34.318 56.743,33.688 56.169,33.688 C55.021,33.688 54.909,34.878 54.909,35.69 C54.909,36.446 55.189,37.006 55.763,37.006 Z M59.347,36.642 C59.263,36.362 59.151,35.536 59.151,34.696 C59.151,33.618 59.389,32.624 60.005,32.624 C60.411,32.624 60.831,32.848 60.831,33.184 C60.831,33.24 60.789,33.394 60.719,33.604 C60.593,34.024 60.383,34.654 60.383,35.116 C60.383,35.396 60.453,36.936 60.775,36.936 C60.901,36.936 61.153,36.502 61.307,36.152 C61.657,35.368 61.895,34.738 62.217,34.108 C62.581,33.408 62.931,33.072 63.449,33.072 C64.121,33.072 64.345,34.584 64.401,34.976 C64.457,35.298 64.499,35.466 64.513,35.648 C64.541,35.956 64.597,36.222 64.681,36.222 C64.821,36.222 64.933,36.012 65.087,35.718 C65.381,35.144 65.969,34.038 66.333,33.506 C66.529,33.226 66.767,33.002 67.089,33.002 C67.635,33.002 67.775,33.366 67.775,33.646 C67.775,34.43 67.761,34.528 67.761,34.626 C67.761,35.48 67.831,36.418 68.335,37.034 C68.447,37.16 68.657,37.272 68.657,37.454 C68.657,37.818 68.391,37.93 68.139,37.93 C67.971,37.93 67.789,37.874 67.607,37.79 C66.837,37.384 66.641,36.166 66.599,35.27 C66.585,34.934 66.529,34.682 66.431,34.682 C66.347,34.682 66.193,34.906 66.109,35.074 C65.759,35.718 65.479,36.334 65.199,36.95 C65.003,37.37 64.779,37.832 64.457,37.832 C64.219,37.832 64.009,37.734 63.925,37.636 C63.673,37.342 63.505,36.502 63.407,35.914 C63.281,35.13 63.155,34.668 62.973,34.668 C62.749,34.668 62.301,35.466 62.021,36.096 C61.853,36.474 61.713,36.74 61.615,36.95 C61.293,37.608 60.915,38.224 60.495,38.224 C60.355,38.224 60.117,38.168 59.921,38.056 C59.669,37.902 59.487,37.426 59.347,36.642 Z M72.283,37.524 C72.773,37.524 73.305,37.258 73.711,36.712 C73.851,36.544 73.893,36.404 74.075,36.404 C74.285,36.404 74.355,36.642 74.355,36.838 C74.355,37.552 73.081,38.294 72.003,38.294 C70.323,38.294 69.609,36.852 69.609,35.466 C69.609,33.884 70.533,32.54 72.129,32.54 C72.773,32.54 73.445,32.988 73.445,33.73 C73.445,34.15 73.319,34.57 73.095,34.948 C72.675,35.662 71.835,36.194 71.023,36.586 C71.289,37.216 71.765,37.524 72.283,37.524 Z M72.451,34.024 C72.451,33.94 72.381,33.576 71.961,33.576 C71.009,33.576 70.827,34.794 70.827,35.438 C70.827,35.606 70.841,35.774 70.855,35.914 C71.933,35.494 72.451,34.696 72.451,34.024 Z M78.261,33.632 C77.379,33.632 76.875,34.696 76.665,35.438 C76.567,35.802 76.525,36.194 76.525,36.586 L76.525,36.978 C76.525,37.86 76.273,38.084 75.755,38.084 C75.405,38.084 75.391,37.776 75.391,37.454 C75.391,35.662 75.279,35.088 75.167,34.514 C75.111,34.248 75.069,33.982 75.027,33.604 C75.027,33.548 75.041,33.464 75.069,33.394 C75.153,33.212 75.349,33.072 75.559,33.072 C76.063,33.072 76.189,33.324 76.343,34.304 C76.609,33.842 76.777,33.604 76.875,33.478 C77.295,32.904 77.869,32.526 78.485,32.526 C78.863,32.526 79.255,32.778 79.255,33.156 C79.255,33.464 79.101,33.842 78.807,33.842 C78.807,33.842 78.751,33.8 78.681,33.744 C78.597,33.674 78.485,33.632 78.261,33.632 Z M79.843,37.398 L79.969,37.398 C80.165,37.398 80.389,37.454 80.683,37.454 C81.327,37.454 82.027,37.328 82.027,36.726 C82.027,36.068 79.801,35.48 79.801,34.122 L79.801,34.038 C79.871,32.834 81.341,32.372 82.223,32.372 L82.391,32.372 C82.783,32.4 82.923,32.512 82.923,32.792 C82.923,32.862 82.909,32.946 82.895,33.044 C82.797,33.576 81.033,33.212 81.033,34.122 C81.033,34.57 81.593,34.906 82.055,35.27 C82.713,35.774 83.315,36.082 83.315,36.754 L83.315,36.824 C83.273,37.79 81.789,38.252 80.921,38.294 L80.781,38.294 C80.543,38.294 80.207,38.28 80.081,38.252 C79.759,38.196 79.535,37.86 79.535,37.636 C79.535,37.51 79.619,37.398 79.843,37.398 Z M25.299,48.632 C24.417,48.632 23.913,49.696 23.703,50.438 C23.605,50.802 23.563,51.194 23.563,51.586 L23.563,51.978 C23.563,52.86 23.311,53.084 22.793,53.084 C22.443,53.084 22.429,52.776 22.429,52.454 C22.429,50.662 22.317,50.088 22.205,49.514 C22.149,49.248 22.107,48.982 22.065,48.604 C22.065,48.548 22.079,48.464 22.107,48.394 C22.191,48.212 22.387,48.072 22.597,48.072 C23.101,48.072 23.227,48.324 23.381,49.304 C23.647,48.842 23.815,48.604 23.913,48.478 C24.333,47.904 24.907,47.526 25.523,47.526 C25.901,47.526 26.293,47.778 26.293,48.156 C26.293,48.464 26.139,48.842 25.845,48.842 C25.845,48.842 25.789,48.8 25.719,48.744 C25.635,48.674 25.523,48.632 25.299,48.632 Z M29.261,52.342 C30.255,52.342 30.941,51.222 30.927,51.236 C31.151,51.236 31.277,51.446 31.277,51.684 C31.277,52.622 29.807,53.126 28.953,53.126 C27.357,53.126 26.643,51.642 26.643,50.312 C26.643,48.8 27.483,47.512 28.995,47.512 C29.793,47.512 30.199,48.044 30.199,48.66 C30.199,49.794 29.163,50.802 28.099,51.572 C28.323,52.062 28.715,52.342 29.261,52.342 Z M29.233,48.87 C29.233,48.772 29.163,48.562 28.883,48.562 C27.973,48.562 27.875,49.766 27.875,50.382 C27.875,50.578 27.875,50.76 27.903,50.928 C28.841,50.172 29.233,49.5 29.233,48.87 Z M38.711,53.084 C37.815,53.084 37.129,52.398 36.863,51.446 C36.835,51.376 36.821,51.306 36.807,51.222 C36.205,52.272 35.365,53.14 34.189,53.14 C32.663,53.14 31.781,51.824 31.781,50.466 C31.781,48.94 32.621,47.75 34.133,47.75 C34.945,47.75 35.715,48.17 35.757,48.954 C35.757,49.248 35.547,49.738 35.267,49.738 C34.819,49.738 35.043,48.758 34.287,48.758 C33.447,48.758 33.069,49.612 33.069,50.41 C33.069,51.516 33.797,52.258 34.525,52.258 C35.673,52.258 36.303,51.096 36.765,49.962 C36.849,48.744 37.465,47.638 38.963,47.638 C40.251,47.638 40.825,48.758 40.895,49.85 L40.895,50.06 C40.895,51.46 40.237,53.084 38.711,53.084 Z M38.767,52.006 C39.635,52.006 39.985,50.942 39.985,50.088 L39.985,49.892 C39.957,49.318 39.677,48.688 39.089,48.688 C38.095,48.688 37.871,49.626 37.871,50.41 C37.871,50.676 37.899,51.04 37.983,51.32 C38.109,51.74 38.375,52.006 38.767,52.006 Z M42.295,51.642 C42.211,51.362 42.099,50.536 42.099,49.696 C42.099,48.618 42.337,47.624 42.953,47.624 C43.359,47.624 43.779,47.848 43.779,48.184 C43.779,48.24 43.737,48.394 43.667,48.604 C43.541,49.024 43.331,49.654 43.331,50.116 C43.331,50.396 43.401,51.936 43.723,51.936 C43.849,51.936 44.101,51.502 44.255,51.152 C44.605,50.368 44.843,49.738 45.165,49.108 C45.529,48.408 45.879,48.072 46.397,48.072 C47.069,48.072 47.293,49.584 47.349,49.976 C47.405,50.298 47.447,50.466 47.461,50.648 C47.489,50.956 47.545,51.222 47.629,51.222 C47.769,51.222 47.881,51.012 48.035,50.718 C48.329,50.144 48.917,49.038 49.281,48.506 C49.477,48.226 49.715,48.002 50.037,48.002 C50.583,48.002 50.723,48.366 50.723,48.646 C50.723,49.43 50.709,49.528 50.709,49.626 C50.709,50.48 50.779,51.418 51.283,52.034 C51.395,52.16 51.605,52.272 51.605,52.454 C51.605,52.818 51.339,52.93 51.087,52.93 C50.919,52.93 50.737,52.874 50.555,52.79 C49.785,52.384 49.589,51.166 49.547,50.27 C49.533,49.934 49.477,49.682 49.379,49.682 C49.295,49.682 49.141,49.906 49.057,50.074 C48.707,50.718 48.427,51.334 48.147,51.95 C47.951,52.37 47.727,52.832 47.405,52.832 C47.167,52.832 46.957,52.734 46.873,52.636 C46.621,52.342 46.453,51.502 46.355,50.914 C46.229,50.13 46.103,49.668 45.921,49.668 C45.697,49.668 45.249,50.466 44.969,51.096 C44.801,51.474 44.661,51.74 44.563,51.95 C44.241,52.608 43.863,53.224 43.443,53.224 C43.303,53.224 43.065,53.168 42.869,53.056 C42.617,52.902 42.435,52.426 42.295,51.642 Z M53.915,50.732 C53.915,51.404 54.041,51.852 54.265,51.852 C54.279,51.852 54.615,51.544 54.853,51.012 C55.175,50.298 55.665,49.206 56.169,48.59 C56.435,48.254 56.701,48.086 57.065,48.086 C57.723,48.086 57.919,49.584 57.975,49.976 C58.031,50.298 58.073,50.466 58.087,50.648 C58.115,50.956 58.171,51.222 58.255,51.222 C58.395,51.222 58.437,51.012 58.577,50.718 C59.529,48.394 60.075,48.1 60.579,48.1 C60.803,48.1 61.111,48.226 61.251,48.478 C61.461,48.87 61.699,50.564 61.811,51.096 C61.895,51.46 62.035,51.894 62.245,52.16 C62.357,52.286 62.567,52.398 62.567,52.58 C62.567,52.93 62.301,53.042 62.063,53.042 C61.895,53.042 61.713,52.986 61.531,52.902 C60.943,52.594 60.747,51.628 60.593,50.9 C60.439,50.158 60.383,49.556 60.089,49.556 C59.907,49.556 59.739,49.822 59.571,50.186 C59.361,50.606 58.969,51.53 58.773,51.95 C58.577,52.37 58.353,52.832 58.031,52.832 C57.793,52.832 57.583,52.734 57.499,52.636 C57.247,52.342 57.079,51.502 56.981,50.914 C56.855,50.13 56.729,49.668 56.547,49.668 C56.323,49.668 55.875,50.396 55.595,51.026 C55.427,51.404 55.287,51.67 55.189,51.88 C54.909,52.454 54.405,53.014 54.013,53.042 C53.957,53.056 53.873,53.07 53.817,53.07 C53.607,53.07 53.537,53.028 53.341,52.916 C52.809,52.58 52.739,50.844 52.739,50.172 C52.739,48.674 53.005,47.652 53.607,47.652 C54.013,47.652 54.391,48.03 54.391,48.352 C54.391,48.408 54.377,48.45 54.335,48.548 C54.321,48.59 54.293,48.646 54.055,49.36 C54.013,49.486 53.915,50.06 53.915,50.732 Z M66.053,52.524 C66.543,52.524 67.075,52.258 67.481,51.712 C67.621,51.544 67.663,51.404 67.845,51.404 C68.055,51.404 68.125,51.642 68.125,51.838 C68.125,52.552 66.851,53.294 65.773,53.294 C64.093,53.294 63.379,51.852 63.379,50.466 C63.379,48.884 64.303,47.54 65.899,47.54 C66.543,47.54 67.215,47.988 67.215,48.73 C67.215,49.15 67.089,49.57 66.865,49.948 C66.445,50.662 65.605,51.194 64.793,51.586 C65.059,52.216 65.535,52.524 66.053,52.524 Z M66.221,49.024 C66.221,48.94 66.151,48.576 65.731,48.576 C64.779,48.576 64.597,49.794 64.597,50.438 C64.597,50.606 64.611,50.774 64.625,50.914 C65.703,50.494 66.221,49.696 66.221,49.024 Z M72.801,50.9 C72.689,50.158 72.437,49.71 72.143,49.71 C71.625,49.71 70.883,51.236 70.659,51.74 L70.561,51.978 C70.491,52.146 70.421,52.538 70.421,52.692 C70.421,52.93 70.225,53.084 70.071,53.084 C69.987,53.084 69.917,53.07 69.847,53.07 C69.707,53.056 69.623,53 69.469,52.916 C68.937,52.58 68.867,50.844 68.867,50.172 C68.867,48.674 69.133,47.652 69.735,47.652 C70.141,47.652 70.519,48.03 70.519,48.352 C70.519,48.408 70.505,48.45 70.463,48.548 C70.449,48.59 70.421,48.646 70.183,49.36 C70.141,49.486 70.043,50.06 70.043,50.732 C70.043,50.984 70.043,51.222 70.085,51.418 C70.491,50.452 71.429,48.268 72.731,48.268 C73.095,48.268 73.403,48.506 73.599,49.094 C73.837,49.752 73.865,50.382 74.019,51.096 C74.103,51.46 74.243,51.894 74.453,52.16 C74.565,52.286 74.775,52.398 74.775,52.58 C74.775,52.93 74.509,53.042 74.271,53.042 C74.103,53.042 73.921,52.986 73.739,52.902 C73.151,52.594 72.899,51.656 72.801,50.9 Z M79.339,47.428 C79.339,45.916 79.381,43.634 80.207,43.634 C80.557,43.634 80.823,43.788 80.837,44.026 C80.837,44.068 80.837,44.166 80.823,44.194 C80.641,45.3 80.459,46.658 80.459,47.652 L80.459,47.862 C80.459,49.528 80.473,51.012 81.103,52.51 C81.159,52.636 81.215,52.776 81.215,52.804 C81.215,53.098 80.991,53.252 80.767,53.252 C80.151,53.252 79.787,52.174 79.591,50.9 C79.213,51.936 78.527,52.972 77.267,52.972 C76.371,52.972 75.573,52.062 75.573,50.802 C75.573,49.094 76.595,47.918 77.799,47.918 C78.275,47.918 78.989,48.072 79.367,48.618 C79.353,48.156 79.339,47.75 79.339,47.428 Z M77.533,52.076 C78.471,52.076 79.185,50.522 79.451,49.78 C79.451,49.766 79.437,49.738 79.437,49.71 C79.255,49.444 78.751,48.8 78.009,48.8 C77.323,48.8 76.707,49.57 76.707,50.746 C76.707,51.572 77.099,52.076 77.533,52.076 Z M33.069,63.842 C32.187,63.842 31.669,64.948 31.459,65.69 C31.361,66.054 31.319,66.446 31.319,66.838 L31.319,67.23 C31.319,68.112 31.011,68.336 30.493,68.336 C30.171,68.336 30.157,68.07 30.157,67.664 L30.157,67.566 C30.157,66.418 30.073,65.774 30.017,65.326 C29.849,64.024 29.443,63.842 28.813,63.842 C28.015,63.842 27.231,64.108 26.405,64.458 L26.405,64.528 C26.405,64.836 26.419,65.172 26.419,65.494 L26.419,67.118 C26.419,67.384 26.433,67.65 26.433,68.084 C26.433,68.322 26.335,68.644 25.971,68.644 C25.817,68.644 25.719,68.434 25.635,68.182 C25.537,67.874 25.383,66.446 25.271,64.962 L24.403,65.452 C24.333,65.48 24.207,65.536 24.123,65.536 C24.067,65.536 24.025,65.508 24.025,65.424 C24.025,64.696 24.137,64.528 24.683,64.332 L25.215,64.136 C25.187,63.548 25.173,62.96 25.173,62.47 C25.173,61.798 25.173,60.356 25.971,60.356 C26.349,60.356 26.629,60.482 26.657,60.72 C26.657,60.776 26.657,60.818 26.643,60.846 C26.517,61.658 26.447,62.778 26.419,63.702 C27.343,63.38 28.393,63.072 29.177,63.072 C30.059,63.072 30.801,63.52 31.109,64.626 C31.613,63.45 32.439,62.778 33.279,62.778 C33.671,62.778 34.063,63.016 34.063,63.422 C34.063,63.716 33.909,64.094 33.615,64.094 C33.615,64.094 33.559,64.052 33.489,63.996 C33.405,63.926 33.293,63.842 33.069,63.842 Z M29.485,57.99 C30.031,57.99 30.955,58.06 31.361,58.214 C31.571,58.298 31.753,58.424 31.753,58.704 C31.753,59.04 31.613,59.53 31.431,59.53 C31.431,59.53 30.493,59.25 28.519,59.25 C27.721,59.25 25.285,59.502 24.529,59.838 C24.347,59.922 24.025,59.978 23.843,59.978 C23.689,59.964 23.605,59.74 23.605,59.502 C23.633,59.306 23.689,59.236 23.815,59.166 C24.389,58.844 26.363,57.99 29.485,57.99 Z M37.059,67.524 C37.549,67.524 38.081,67.258 38.487,66.712 C38.627,66.544 38.669,66.404 38.851,66.404 C39.061,66.404 39.131,66.642 39.131,66.838 C39.131,67.552 37.857,68.294 36.779,68.294 C35.099,68.294 34.385,66.852 34.385,65.466 C34.385,63.884 35.309,62.54 36.905,62.54 C37.549,62.54 38.221,62.988 38.221,63.73 C38.221,64.15 38.095,64.57 37.871,64.948 C37.451,65.662 36.611,66.194 35.799,66.586 C36.065,67.216 36.541,67.524 37.059,67.524 Z M37.227,64.024 C37.227,63.94 37.157,63.576 36.737,63.576 C35.785,63.576 35.603,64.794 35.603,65.438 C35.603,65.606 35.617,65.774 35.631,65.914 C36.709,65.494 37.227,64.696 37.227,64.024 Z M42.113,66.516 C42.113,65.886 39.957,65.578 39.901,64.22 L39.901,64.15 C39.901,62.974 41.217,62.4 42.323,62.33 C42.841,62.33 43.023,62.694 43.023,63.002 C43.023,63.464 41.035,63.296 41.035,64.178 C41.035,64.668 42.421,65.284 42.757,65.494 C43.191,65.774 43.415,66.096 43.415,66.53 C43.415,67.706 41.483,68.266 40.573,68.266 C40.195,68.266 39.733,68.182 39.733,67.776 C39.733,67.622 39.789,67.482 39.929,67.482 C40.069,67.482 40.167,67.51 40.279,67.51 C40.867,67.51 42.113,67.23 42.113,66.516 Z M49.673,68.21 C49.043,67.93 48.847,67.076 48.665,66.264 L48.427,64.808 C48.385,64.626 48.245,64.388 47.965,64.388 C47.839,64.388 47.685,64.57 47.545,64.738 C47.265,65.088 47.111,65.648 46.271,67.314 C46.075,67.692 45.781,68.182 45.347,68.182 C45.151,68.182 44.927,67.972 44.857,67.678 C44.479,66.166 44.451,64.556 44.451,63.058 C44.451,62.162 44.493,61.308 44.535,60.44 C44.577,59.712 44.661,58.998 44.885,58.998 C45.655,58.998 45.865,59.348 45.865,59.88 C45.865,59.978 45.865,60.076 45.851,60.174 C45.711,61.294 45.585,62.82 45.585,64.206 C45.585,64.808 45.613,66.138 45.683,66.628 C45.697,66.698 45.711,66.74 45.739,66.74 C45.781,66.74 45.823,66.656 45.851,66.558 C46.313,65.494 46.565,64.654 47.013,64.038 C47.349,63.562 47.881,63.142 48.525,63.142 C49.407,63.142 49.617,64.094 49.687,64.85 C49.799,65.914 49.841,66.404 49.925,66.726 C50.009,67.034 50.107,67.314 50.191,67.496 C50.247,67.622 50.303,67.762 50.303,67.79 C50.303,68.084 50.065,68.238 49.841,68.238 C49.785,68.238 49.743,68.238 49.673,68.21 Z M52.095,67.776 C52.207,67.818 52.375,67.832 52.571,67.832 C54.363,67.832 56.813,67.37 56.813,65.13 C56.729,64.024 55.917,63.786 54.643,63.786 C54.391,63.786 53.873,63.954 53.691,63.954 C53.607,63.954 53.537,63.926 53.467,63.898 C53.467,64.108 53.467,64.332 53.481,64.57 C53.509,65.186 53.621,65.858 53.691,66.516 C53.705,66.656 53.747,67.09 53.761,67.342 C53.761,67.342 53.775,67.384 53.775,67.426 C53.775,67.496 53.733,67.58 53.481,67.58 C53.075,67.58 52.865,67.132 52.767,66.684 C52.557,65.704 52.445,64.36 52.389,63.03 C52.375,62.764 52.375,62.498 52.375,62.232 C52.375,61.112 52.529,60.118 53.229,60.118 C53.593,60.118 53.901,60.258 53.901,60.412 C53.901,60.524 53.565,61.476 53.481,63.114 C53.677,63.072 53.915,63.016 54.111,62.876 C54.797,62.456 55.749,61.728 55.861,60.538 C55.833,59.628 55.021,59.544 54.223,59.544 C53.453,59.544 52.907,59.572 52.109,59.866 C51.605,60.02 51.059,60.272 50.695,60.524 C50.527,60.468 50.443,60.3 50.443,60.104 C50.499,59.712 50.779,59.278 52.151,58.928 C52.949,58.732 53.733,58.564 54.615,58.564 C55.693,58.564 57.177,58.83 57.177,60.146 C57.177,61.112 56.085,62.722 54.867,63.072 C54.993,63.058 55.133,63.058 55.259,63.058 C56.505,63.058 58.087,63.548 58.087,65.088 C58.087,67.916 54.699,68.644 52.305,68.644 C51.829,68.644 51.269,68.56 51.269,68.07 C51.269,67.804 51.409,67.552 51.563,67.552 C51.787,67.552 51.745,67.65 52.095,67.776 Z M61.069,68.084 C59.977,68.084 59.165,67.062 59.165,65.802 C59.165,64.22 59.571,62.638 61.461,62.638 C62.805,62.638 63.323,63.842 63.323,64.976 C63.323,66.39 62.637,68.084 61.069,68.084 Z M61.153,67.006 C62.119,67.006 62.427,65.774 62.427,64.892 C62.427,64.318 62.133,63.688 61.559,63.688 C60.411,63.688 60.299,64.878 60.299,65.69 C60.299,66.446 60.579,67.006 61.153,67.006 Z M66.389,68.098 C65.115,68.098 64.429,67.034 64.429,65.592 C64.429,64.066 65.087,62.736 66.725,62.736 C68.097,62.736 68.643,63.968 68.643,65.088 C68.643,66.432 67.845,68.028 66.389,68.098 Z M66.515,67.104 C67.509,67.104 67.761,65.816 67.761,64.92 C67.761,64.332 67.495,63.786 66.809,63.786 C65.745,63.786 65.647,65.06 65.647,65.816 C65.647,66.586 65.927,67.104 66.515,67.104 Z M71.177,60.188 C70.939,61.63 70.855,63.17 70.855,64.738 C70.855,64.92 70.855,65.116 70.869,65.312 C71.751,63.926 72.493,63.198 73.081,62.848 C73.263,62.75 73.487,62.638 73.683,62.638 C74.033,62.638 74.341,62.876 74.341,63.422 C74.341,63.618 74.033,63.618 73.641,63.87 C73.053,64.234 72.563,64.612 72.115,65.06 C72.787,65.998 73.725,66.922 74.733,67.398 C74.803,67.426 74.831,67.482 74.831,67.538 C74.831,67.958 74.411,68.126 74.173,68.126 C73.193,68.126 72.213,67.034 71.415,65.858 L70.953,66.404 C71.023,67.048 71.093,67.622 71.093,67.776 C71.093,68.14 71.023,68.266 70.813,68.266 C70.155,68.266 70.057,67.72 70.015,67.216 C69.917,65.984 69.833,64.892 69.833,63.548 C69.833,62.232 69.875,61.042 70.015,59.6 C70.043,59.32 70.155,59.096 70.449,59.096 C70.701,59.096 71.233,59.334 71.233,59.74 C71.233,59.81 71.205,59.908 71.177,60.188 Z M75.629,67.398 L75.755,67.398 C75.951,67.398 76.175,67.454 76.469,67.454 C77.113,67.454 77.813,67.328 77.813,66.726 C77.813,66.068 75.587,65.48 75.587,64.122 L75.587,64.038 C75.657,62.834 77.127,62.372 78.009,62.372 L78.177,62.372 C78.569,62.4 78.709,62.512 78.709,62.792 C78.709,62.862 78.695,62.946 78.681,63.044 C78.583,63.576 76.819,63.212 76.819,64.122 C76.819,64.57 77.379,64.906 77.841,65.27 C78.499,65.774 79.101,66.082 79.101,66.754 L79.101,66.824 C79.059,67.79 77.575,68.252 76.707,68.294 L76.567,68.294 C76.329,68.294 75.993,68.28 75.867,68.252 C75.545,68.196 75.321,67.86 75.321,67.636 C75.321,67.51 75.405,67.398 75.629,67.398 Z" id="of-customers-recomme" transform="translate(51.577000, 48.555000) rotate(27.000000) translate(-51.577000, -48.555000) "></path>
        </g>
    </g>
</svg>